<svg width="3109" height="1119" viewBox="0 0 3109 1119" fill="none" xmlns="http://www.w3.org/2000/svg">
<g filter="url(#filter0_d_2116_262)">
<path d="M2750.78 422.109C2750.78 300.088 2668.81 246.284 2558.17 227.018C2564.54 257.391 2567.64 288.34 2567.44 319.354C2567.44 389.855 2530.65 459.643 2475.48 516.301C2504.28 534.204 2527.88 559.15 2544 588.711C2560.11 618.272 2568.19 651.441 2567.44 684.989C2567.15 715.126 2562.26 745.049 2552.96 773.758C2666.06 704.827 2750.78 546.128 2750.78 422.109Z" fill="#B7B764"/>
<path d="M2025.37 543.419C1985.98 482.908 1967.44 401.417 1967.44 319.356C1968.37 265.848 1988.95 214.484 2025.37 174.786C1993.49 165.112 1960.39 159.923 1927.04 159.373C1761.5 159.373 1742.1 318.357 1742.1 481.48C1742.13 541.927 1760.97 600.91 1796.09 650.47C1831.2 700.031 1880.9 737.783 1938.48 758.633C1938.48 756.349 1938.48 753.923 1938.48 751.64C1938.3 673.629 1969.56 598.741 2025.37 543.419Z" fill="#ED8F65"/>
<path d="M2438.55 217.885C2478.61 217.503 2518.64 220.559 2558.17 227.019C2533.98 115.273 2460.85 43.916 2329.5 43.916C2218.85 43.916 2095.75 93.5808 2025.37 174.786C2104.34 198.456 2177.07 238.943 2238.4 293.382C2293.33 244.668 2364.65 217.767 2438.55 217.885Z" fill="#27ABE2"/>
<path d="M2238.55 293.382C2294.59 343.903 2334.56 403.986 2340.65 465.353C2388.56 473.234 2434.37 490.563 2475.33 516.302C2530.51 459.216 2567.29 389.857 2567.29 319.356C2567.5 288.342 2564.39 257.393 2558.02 227.019C2518.49 220.559 2478.47 217.503 2438.4 217.885C2364.6 217.838 2293.4 244.734 2238.55 293.382Z" fill="#B7B764"/>
<path d="M2238.55 293.382C2294.59 343.903 2334.56 403.986 2340.65 465.353C2388.56 473.234 2434.37 490.563 2475.33 516.302C2530.51 459.216 2567.29 389.857 2567.29 319.356C2567.5 288.342 2564.39 257.393 2558.02 227.019C2518.49 220.559 2478.47 217.503 2438.4 217.885C2364.6 217.838 2293.4 244.734 2238.55 293.382Z" fill="#278665"/>
<path d="M2025.37 543.418C2057.9 511.157 2097.55 486.736 2141.23 472.06C2151.07 403.231 2185.28 340.044 2237.82 293.667C2176.69 239.198 2104.16 198.616 2025.37 174.785C1988.95 214.483 1968.37 265.846 1967.44 319.355C1967.44 401.416 1985.98 482.906 2025.37 543.418Z" fill="#ED8F65"/>
<path d="M2025.37 543.418C2057.9 511.157 2097.55 486.736 2141.23 472.06C2151.07 403.231 2185.28 340.044 2237.82 293.667C2176.69 239.198 2104.16 198.616 2025.37 174.785C1988.95 214.483 1968.37 265.846 1967.44 319.355C1967.44 401.416 1985.98 482.906 2025.37 543.418Z" fill="#606766"/>
<path d="M2340.65 465.352C2334.56 403.985 2294.59 343.759 2238.55 293.381C2185.68 339.72 2151.2 403.03 2141.23 472.06C2172.07 461.825 2204.41 456.619 2236.95 456.647C2271.72 456.386 2306.43 459.301 2340.65 465.352Z" fill="#B7B764"/>
<path d="M2340.65 465.352C2334.56 403.985 2294.59 343.759 2238.55 293.381C2185.68 339.72 2151.2 403.03 2141.23 472.06C2172.07 461.825 2204.41 456.619 2236.95 456.647C2271.72 456.386 2306.43 459.301 2340.65 465.352Z" fill="#ED8F65"/>
<path d="M2340.65 465.352C2334.56 403.985 2294.59 343.759 2238.55 293.381C2185.68 339.72 2151.2 403.03 2141.23 472.06C2172.07 461.825 2204.41 456.619 2236.95 456.647C2271.72 456.386 2306.43 459.301 2340.65 465.352Z" fill="#4D5740"/>
<path d="M2222.18 717.387C2182.15 747.05 2135.21 766.365 2085.65 773.569C2036.1 780.774 1985.5 775.638 1938.48 758.631C1940.33 835.701 1972.7 909 2028.66 962.868C2084.62 1016.74 2159.74 1046.9 2237.97 1046.92C2374.1 1046.92 2509.37 912.335 2553.1 773.759C2519.11 795.649 2479.58 807.712 2438.98 808.582C2398.46 808.664 2358.34 800.622 2321.07 784.945C2283.8 769.267 2250.16 746.282 2222.18 717.387Z" fill="#D65256"/>
<path d="M2475.48 516.301C2427.66 565.446 2368.77 602.8 2303.57 625.335C2283.21 661.247 2255.5 692.594 2222.18 717.386C2250.12 746.246 2283.72 769.211 2320.94 784.888C2358.16 800.564 2398.22 808.625 2438.69 808.581C2479.29 807.712 2518.82 795.648 2552.81 773.758C2562.12 745.05 2567 715.127 2567.29 684.99C2568.06 651.455 2560.01 618.295 2543.92 588.735C2527.83 559.175 2504.25 534.222 2475.48 516.301Z" fill="#B7B764"/>
<path d="M2475.48 516.301C2427.66 565.446 2368.77 602.8 2303.57 625.335C2283.21 661.247 2255.5 692.594 2222.18 717.386C2250.12 746.246 2283.72 769.211 2320.94 784.888C2358.16 800.564 2398.22 808.625 2438.69 808.581C2479.29 807.712 2518.82 795.648 2552.81 773.758C2562.12 745.05 2567 715.127 2567.29 684.99C2568.06 651.455 2560.01 618.295 2543.92 588.735C2527.83 559.175 2504.25 534.222 2475.48 516.301Z" fill="#A04532"/>
<path d="M2222.18 717.387C2199.92 694.503 2181.53 668.242 2167.73 639.608C2138.32 634.781 2110.33 623.67 2085.74 607.053C2061.14 590.436 2040.54 568.716 2025.37 543.418C1969.56 598.74 1938.3 673.629 1938.48 751.639C1938.48 754.065 1938.48 756.349 1938.48 758.632C1985.56 775.715 2036.24 780.891 2085.88 773.685C2135.52 766.48 2182.53 747.124 2222.62 717.387H2222.18Z" fill="#ED8F65"/>
<path d="M2222.18 717.387C2199.92 694.503 2181.53 668.242 2167.73 639.608C2138.32 634.781 2110.33 623.67 2085.74 607.053C2061.14 590.436 2040.54 568.716 2025.37 543.418C1969.56 598.74 1938.3 673.629 1938.48 751.639C1938.48 754.065 1938.48 756.349 1938.48 758.632C1985.56 775.715 2036.24 780.891 2085.88 773.685C2135.52 766.48 2182.53 747.124 2222.62 717.387H2222.18Z" fill="#CF332F"/>
<path d="M2167.73 639.607C2181.53 668.241 2199.92 694.503 2222.18 717.387C2255.49 692.595 2283.21 661.248 2303.57 625.336C2271.73 636.365 2238.27 642.198 2204.51 642.604C2192.19 642.575 2179.89 641.572 2167.73 639.607Z" fill="#B7B764"/>
<path d="M2167.73 639.607C2181.53 668.241 2199.92 694.503 2222.18 717.387C2255.49 692.595 2283.21 661.248 2303.57 625.336C2271.73 636.365 2238.27 642.198 2204.51 642.604C2192.19 642.575 2179.89 641.572 2167.73 639.607Z" fill="#ED8F65"/>
<path d="M2167.73 639.607C2181.53 668.241 2199.92 694.503 2222.18 717.387C2255.49 692.595 2283.21 661.248 2303.57 625.336C2271.73 636.365 2238.27 642.198 2204.51 642.604C2192.19 642.575 2179.89 641.572 2167.73 639.607Z" fill="#9B3327"/>
<path d="M2341.52 481.48C2341.58 531.844 2328.52 581.379 2303.57 625.337C2368.77 602.802 2427.66 565.448 2475.48 516.303C2434.52 490.563 2388.71 473.234 2340.79 465.354C2341.23 470.777 2341.52 476.057 2341.52 481.48Z" fill="#B7B764"/>
<path d="M2341.52 481.48C2341.58 531.844 2328.52 581.379 2303.57 625.337C2368.77 602.802 2427.66 565.448 2475.48 516.303C2434.52 490.563 2388.71 473.234 2340.79 465.354C2341.23 470.777 2341.52 476.057 2341.52 481.48Z" fill="#27ABE2"/>
<path d="M2341.52 481.48C2341.58 531.844 2328.52 581.379 2303.57 625.337C2368.77 602.802 2427.66 565.448 2475.48 516.303C2434.52 490.563 2388.71 473.234 2340.79 465.354C2341.23 470.777 2341.52 476.057 2341.52 481.48Z" fill="#503F39"/>
<path d="M2141.23 472.062C2097.55 486.739 2057.9 511.159 2025.37 543.42C2040.57 568.751 2061.22 590.491 2085.87 607.11C2110.51 623.729 2138.55 634.822 2168.02 639.61C2148.94 600.108 2139.05 556.911 2139.06 513.164C2138.82 499.431 2139.54 485.697 2141.23 472.062Z" fill="#ED8F65"/>
<path d="M2141.23 472.062C2097.55 486.739 2057.9 511.159 2025.37 543.42C2040.57 568.751 2061.22 590.491 2085.87 607.11C2110.51 623.729 2138.55 634.822 2168.02 639.61C2148.94 600.108 2139.05 556.911 2139.06 513.164C2138.82 499.431 2139.54 485.697 2141.23 472.062Z" fill="#27ABE2"/>
<path d="M2141.23 472.062C2097.55 486.739 2057.9 511.159 2025.37 543.42C2040.57 568.751 2061.22 590.491 2085.87 607.11C2110.51 623.729 2138.55 634.822 2168.02 639.61C2148.94 600.108 2139.05 556.911 2139.06 513.164C2138.82 499.431 2139.54 485.697 2141.23 472.062Z" fill="#62383C"/>
<path d="M2340.65 465.352C2306.63 459.192 2272.12 456.135 2237.53 456.218C2204.77 456.267 2172.23 461.618 2141.23 472.06C2139.23 485.816 2138.22 499.694 2138.19 513.59C2138.18 557.336 2148.07 600.534 2167.15 640.035C2179.31 642 2191.61 643.002 2203.94 643.032C2237.69 642.626 2271.15 636.793 2302.99 625.764C2327.94 581.806 2341 532.271 2340.94 481.907C2341.52 476.056 2341.23 470.775 2340.65 465.352Z" fill="#B7B764"/>
<path d="M2340.65 465.352C2306.63 459.192 2272.12 456.135 2237.53 456.218C2204.77 456.267 2172.23 461.618 2141.23 472.06C2139.23 485.816 2138.22 499.694 2138.19 513.59C2138.18 557.336 2148.07 600.534 2167.15 640.035C2179.31 642 2191.61 643.002 2203.94 643.032C2237.69 642.626 2271.15 636.793 2302.99 625.764C2327.94 581.806 2341 532.271 2340.94 481.907C2341.52 476.056 2341.23 470.775 2340.65 465.352Z" fill="#ED8F65"/>
<path d="M2340.65 465.352C2306.63 459.192 2272.12 456.135 2237.53 456.218C2204.77 456.267 2172.23 461.618 2141.23 472.06C2139.23 485.816 2138.22 499.694 2138.19 513.59C2138.18 557.336 2148.07 600.534 2167.15 640.035C2179.31 642 2191.61 643.002 2203.94 643.032C2237.69 642.626 2271.15 636.793 2302.99 625.764C2327.94 581.806 2341 532.271 2340.94 481.907C2341.52 476.056 2341.23 470.775 2340.65 465.352Z" fill="#27ABE2"/>
<path d="M2340.65 465.352C2306.63 459.192 2272.12 456.135 2237.53 456.218C2204.77 456.267 2172.23 461.618 2141.23 472.06C2139.23 485.816 2138.22 499.694 2138.19 513.59C2138.18 557.336 2148.07 600.534 2167.15 640.035C2179.31 642 2191.61 643.002 2203.94 643.032C2237.69 642.626 2271.15 636.793 2302.99 625.764C2327.94 581.806 2341 532.271 2340.94 481.907C2341.52 476.056 2341.23 470.775 2340.65 465.352Z" fill="#4F3631"/>
</g>
<path d="M396.177 685.719H335.825V562.477H222.739V685.719H162.192V400.172H222.739V512.086H335.825V400.172H396.177V685.719Z" fill="white"/>
<path d="M553.208 462.867C582.505 462.867 604.966 469.247 620.591 482.008C636.216 494.768 644.028 514.169 644.028 540.211V685.719H602.427L590.903 656.031H589.341C583.091 663.844 576.711 670.224 570.2 675.172C563.69 680.12 556.203 683.766 547.739 686.109C539.276 688.453 528.989 689.625 516.88 689.625C503.989 689.625 492.401 687.151 482.114 682.203C471.958 677.255 463.95 669.703 458.091 659.547C452.231 649.26 449.302 636.24 449.302 620.484C449.302 597.307 457.44 580.25 473.716 569.312C489.992 558.245 514.406 552.125 546.958 550.953L584.849 549.781V540.211C584.849 528.753 581.854 520.354 575.864 515.016C569.875 509.677 561.541 507.008 550.864 507.008C540.317 507.008 529.966 508.505 519.81 511.5C509.653 514.495 499.497 518.271 489.341 522.828L469.614 482.594C481.203 476.474 494.159 471.656 508.481 468.141C522.935 464.625 537.843 462.867 553.208 462.867ZM584.849 584.547L561.802 585.328C542.531 585.849 529.119 589.299 521.567 595.68C514.146 602.06 510.435 610.458 510.435 620.875C510.435 629.99 513.104 636.5 518.442 640.406C523.781 644.182 530.747 646.07 539.341 646.07C552.101 646.07 562.843 642.294 571.567 634.742C580.422 627.19 584.849 616.448 584.849 602.516V584.547Z" fill="white"/>
<path d="M794.224 689.625C772.609 689.625 754.185 685.719 738.95 677.906C723.716 669.964 712.127 657.724 704.185 641.188C696.242 624.651 692.271 603.492 692.271 577.711C692.271 551.018 696.763 529.273 705.747 512.477C714.862 495.549 727.427 483.115 743.442 475.172C759.588 467.229 778.273 463.258 799.497 463.258C814.601 463.258 827.622 464.755 838.56 467.75C849.627 470.615 859.263 474.065 867.466 478.102L849.888 524.195C840.513 520.419 831.789 517.359 823.716 515.016C815.643 512.542 807.57 511.305 799.497 511.305C789.08 511.305 780.422 513.779 773.521 518.727C766.619 523.544 761.476 530.836 758.091 540.602C754.705 550.367 753.013 562.607 753.013 577.32C753.013 591.773 754.836 603.753 758.481 613.258C762.127 622.763 767.401 629.859 774.302 634.547C781.203 639.104 789.601 641.383 799.497 641.383C811.867 641.383 822.869 639.755 832.505 636.5C842.14 633.115 851.515 628.427 860.63 622.438V673.414C851.515 679.143 841.945 683.245 831.919 685.719C822.023 688.323 809.458 689.625 794.224 689.625Z" fill="white"/>
<path d="M970.981 381.812V517.75C970.981 525.953 970.656 534.156 970.005 542.359C969.354 550.562 968.638 558.766 967.856 566.969H968.638C972.674 561.24 976.776 555.576 980.942 549.977C985.239 544.378 989.797 538.974 994.614 533.766L1055.75 467.359H1122.93L1036.22 562.086L1128.21 685.719H1059.46L996.567 597.242L970.981 617.75V685.719H911.411V381.812H970.981Z" fill="white"/>
<path d="M1248.91 462.867C1278.21 462.867 1300.67 469.247 1316.29 482.008C1331.92 494.768 1339.73 514.169 1339.73 540.211V685.719H1298.13L1286.61 656.031H1285.04C1278.79 663.844 1272.41 670.224 1265.9 675.172C1259.39 680.12 1251.91 683.766 1243.44 686.109C1234.98 688.453 1224.69 689.625 1212.58 689.625C1199.69 689.625 1188.1 687.151 1177.82 682.203C1167.66 677.255 1159.65 669.703 1153.79 659.547C1147.93 649.26 1145 636.24 1145 620.484C1145 597.307 1153.14 580.25 1169.42 569.312C1185.7 558.245 1210.11 552.125 1242.66 550.953L1280.55 549.781V540.211C1280.55 528.753 1277.56 520.354 1271.57 515.016C1265.58 509.677 1257.24 507.008 1246.57 507.008C1236.02 507.008 1225.67 508.505 1215.51 511.5C1205.36 514.495 1195.2 518.271 1185.04 522.828L1165.32 482.594C1176.91 476.474 1189.86 471.656 1204.18 468.141C1218.64 464.625 1233.55 462.867 1248.91 462.867ZM1280.55 584.547L1257.5 585.328C1238.23 585.849 1224.82 589.299 1217.27 595.68C1209.85 602.06 1206.14 610.458 1206.14 620.875C1206.14 629.99 1208.81 636.5 1214.15 640.406C1219.48 644.182 1226.45 646.07 1235.04 646.07C1247.8 646.07 1258.55 642.294 1267.27 634.742C1276.12 627.19 1280.55 616.448 1280.55 602.516V584.547Z" fill="white"/>
<path d="M1493.25 642.164C1499.76 642.164 1506.07 641.513 1512.19 640.211C1518.44 638.909 1524.63 637.281 1530.75 635.328V679.664C1524.37 682.529 1516.42 684.872 1506.92 686.695C1497.54 688.648 1487.26 689.625 1476.06 689.625C1463.04 689.625 1451.32 687.542 1440.9 683.375C1430.62 679.078 1422.48 671.721 1416.49 661.305C1410.63 650.758 1407.7 636.109 1407.7 617.359V512.086H1379.18V486.891L1412 466.969L1429.18 420.875H1467.27V467.359H1528.4V512.086H1467.27V617.359C1467.27 625.693 1469.61 631.943 1474.3 636.109C1479.12 640.146 1485.43 642.164 1493.25 642.164Z" fill="white"/>
<path d="M1634.65 381.812V443.727C1634.65 454.534 1634.26 464.82 1633.48 474.586C1632.83 484.352 1632.31 491.253 1631.92 495.289H1635.04C1639.73 487.737 1645.27 481.617 1651.65 476.93C1658.16 472.242 1665.32 468.792 1673.13 466.578C1680.94 464.365 1689.34 463.258 1698.33 463.258C1714.08 463.258 1727.82 466.057 1739.54 471.656C1751.25 477.125 1760.37 485.784 1766.88 497.633C1773.39 509.352 1776.65 524.586 1776.65 543.336V685.719H1717.08V558.18C1717.08 542.555 1714.21 530.771 1708.48 522.828C1702.75 514.885 1693.9 510.914 1681.92 510.914C1669.94 510.914 1660.5 513.714 1653.6 519.312C1646.7 524.781 1641.81 532.919 1638.95 543.727C1636.09 554.404 1634.65 567.49 1634.65 582.984V685.719H1575.08V381.812H1634.65Z" fill="white"/>
<path d="M2101.84 542.555C2101.84 564.56 2099.11 584.612 2093.64 602.711C2088.17 620.68 2079.84 636.174 2068.64 649.195C2057.57 662.216 2043.51 672.242 2026.45 679.273C2009.39 686.174 1989.21 689.625 1965.9 689.625C1942.6 689.625 1922.41 686.174 1905.36 679.273C1888.3 672.242 1874.17 662.216 1862.97 649.195C1851.91 636.174 1843.64 620.615 1838.17 602.516C1832.7 584.417 1829.97 564.299 1829.97 542.164C1829.97 512.607 1834.78 486.891 1844.42 465.016C1854.18 443.01 1869.16 425.953 1889.34 413.844C1909.52 401.734 1935.17 395.68 1966.29 395.68C1997.28 395.68 2022.74 401.734 2042.66 413.844C2062.71 425.953 2077.56 443.01 2087.19 465.016C2096.96 487.021 2101.84 512.867 2101.84 542.555ZM1893.44 542.555C1893.44 562.477 1895.92 579.664 1900.86 594.117C1905.94 608.44 1913.82 619.508 1924.5 627.32C1935.17 635.003 1948.98 638.844 1965.9 638.844C1983.09 638.844 1997.02 635.003 2007.7 627.32C2018.38 619.508 2026.12 608.44 2030.94 594.117C2035.89 579.664 2038.36 562.477 2038.36 542.555C2038.36 512.607 2032.77 489.039 2021.57 471.852C2010.37 454.664 1991.94 446.07 1966.29 446.07C1949.24 446.07 1935.3 449.977 1924.5 457.789C1913.82 465.471 1905.94 476.539 1900.86 490.992C1895.92 505.315 1893.44 522.503 1893.44 542.555Z" fill="white"/>
<path d="M2325.47 685.719H2161.02V400.172H2325.47V449.781H2221.57V512.477H2318.25V562.086H2221.57V635.719H2325.47V685.719Z" fill="white"/>
<path d="M2468.44 400.172C2494.35 400.172 2515.71 403.297 2532.5 409.547C2549.43 415.797 2562 425.237 2570.2 437.867C2578.4 450.497 2582.5 466.448 2582.5 485.719C2582.5 498.74 2580.03 510.133 2575.08 519.898C2570.14 529.664 2563.62 537.932 2555.55 544.703C2547.48 551.474 2538.75 557.008 2529.38 561.305L2613.36 685.719H2546.18L2478.01 576.148H2445.79V685.719H2385.24V400.172H2468.44ZM2464.15 449.781H2445.79V526.93H2465.32C2485.37 526.93 2499.69 523.609 2508.29 516.969C2517.01 510.198 2521.37 500.302 2521.37 487.281C2521.37 473.74 2516.68 464.104 2507.31 458.375C2498.06 452.646 2483.68 449.781 2464.15 449.781Z" fill="white"/>
<path d="M2768.64 463.258C2791.95 463.258 2810.7 469.638 2824.89 482.398C2839.08 495.029 2846.18 515.341 2846.18 543.336V685.719H2786.61V558.18C2786.61 542.555 2783.74 530.771 2778.01 522.828C2772.41 514.885 2763.56 510.914 2751.45 510.914C2733.22 510.914 2720.79 517.099 2714.15 529.469C2707.5 541.839 2704.18 559.677 2704.18 582.984V685.719H2644.61V467.359H2690.12L2698.13 495.289H2701.45C2706.14 487.737 2711.93 481.617 2718.83 476.93C2725.86 472.242 2733.61 468.792 2742.08 466.578C2750.67 464.365 2759.52 463.258 2768.64 463.258Z" fill="white"/>
<defs>
<filter id="filter0_d_2116_262" x="1738.1" y="43.916" width="1016.68" height="1011" filterUnits="userSpaceOnUse" color-interpolation-filters="sRGB">
<feFlood flood-opacity="0" result="BackgroundImageFix"/>
<feColorMatrix in="SourceAlpha" type="matrix" values="0 0 0 0 0 0 0 0 0 0 0 0 0 0 0 0 0 0 127 0" result="hardAlpha"/>
<feOffset dy="4"/>
<feGaussianBlur stdDeviation="2"/>
<feComposite in2="hardAlpha" operator="out"/>
<feColorMatrix type="matrix" values="0 0 0 0 0 0 0 0 0 0 0 0 0 0 0 0 0 0 0.25 0"/>
<feBlend mode="normal" in2="BackgroundImageFix" result="effect1_dropShadow_2116_262"/>
<feBlend mode="normal" in="SourceGraphic" in2="effect1_dropShadow_2116_262" result="shape"/>
</filter>
</defs>
</svg>
